<?xml version="1.0" encoding="utf-8"?>
<!-- Generator: Adobe Illustrator 24.0.1, SVG Export Plug-In . SVG Version: 6.00 Build 0)  -->
<svg version="1.1" id="a" xmlns="http://www.w3.org/2000/svg" xmlns:xlink="http://www.w3.org/1999/xlink" x="0px" y="0px"
	 viewBox="0 0 1223.5 402.8" style="enable-background:new 0 0 1223.5 402.8;" xml:space="preserve">
<style type="text/css">
	.st0{fill:none;}
	.st1{fill:#FFFFFF;}
</style>
<polygon class="st0" points="0,24.4 2055.6,30.5 2055.6,2030.5 0,2024.4 "/>
<rect y="24.4" class="st0" width="2000" height="2000"/>
<g>
	<g>
		<path class="st1" d="M375.2,222.6c0,2.2-0.5,4.6-1.5,7.1c-1,2.5-2.5,4.8-4.7,6.9c-2.2,2.1-4.9,3.8-8.3,5.2c-3.4,1.3-7.1,2-11.1,2
			s-7.6-0.6-10.8-1.9c-6-2.4-9.8-6.5-11.6-12.4c-0.5-1.6-0.7-3.1-0.7-4.5c0-4.5,1.4-8.7,4.1-12.6l0.7,0.5c-1.7,3-2.5,6-2.5,8.8
			c0,3.5,0.9,6.6,2.6,9.3s4.1,4.8,7,6.3c2.9,1.5,5.9,2.2,9,2.2s5.6-0.5,7.8-1.5c2.1-1,3.7-2.3,4.6-3.9s1.5-3.4,1.5-5.2
			s-0.6-3.6-1.9-5.5c-1.3-1.9-3.2-3.5-5.7-4.9l-12.6-7.4c-6.4-3.8-9.6-8.6-9.6-14.5c0-5.3,1.8-9.4,5.5-12.3
			c3.1-2.4,7.3-3.6,12.6-3.6c3.4,0,7.7,0.3,13,0.8h6l-1.6,12.6h-0.8c0-2.8-1.1-5.1-3.3-6.9s-5-2.6-8.5-2.6s-6.1,0.6-7.9,1.8
			s-2.8,2.8-3,4.7c-0.2,1.3,0.2,2.5,1.1,3.4c0.8,0.8,1.5,1.4,2.3,1.9c0.8,0.4,1.5,0.8,2.1,1.2s1,0.6,1.3,0.7l14.4,8.3
			c3.2,1.8,5.8,4,7.6,6.7C374.1,216.1,375.2,219.3,375.2,222.6"/>
		<path class="st1" d="M388.1,234.9c1.3,0,2.5-0.5,3.4-1.4c1-0.9,1.5-2.1,1.5-3.4v-42.7c0-1.7-0.8-3-2.1-3.9
			c-0.8-0.6-1.8-0.9-2.8-0.9h-1v-0.8h34.2c2.2,0,4.2-0.2,5.9-0.5c1.7-0.4,2.8-0.6,3.3-0.8v15.9h-0.8v-0.6c0-4.1-1.5-7-4.5-8.6
			c-1.4-0.8-3.2-1.3-5.2-1.3h-11.2v21.5h8.4c2.5-0.1,4.5-0.9,6-2.4c1.5-1.6,2.3-3.6,2.3-6.1v-0.3h0.8v21.4h-0.8v-0.4
			c0-2.4-0.8-4.4-2.3-6s-3.5-2.4-5.9-2.4h-8.5v20.7h9.5c3.8,0,7.1-1.2,10-3.7s4.9-5.9,6.1-10.3h0.8l-2.9,17.9h-45.1v-0.8
			L388.1,234.9L388.1,234.9z"/>
		<path class="st1" d="M446.5,208.6c0-5.8,1.3-10.8,4-15c2.7-4.2,6.5-7.4,11.6-9.6s11.3-3.3,18.6-3.3s13.8,1.2,19.3,3.6l-0.8,14.7
			h-0.7c-1.5-5.2-3.7-8.9-6.5-11.1c-2.8-2.2-6.3-3.3-10.6-3.3c-5.7,0-10.2,2.1-13.3,6.3c-3.2,4.2-4.8,10.1-4.8,17.6
			s1.5,13.5,4.4,17.8c3,4.3,7,6.6,12.3,6.7c6.1,0,10.5-1.4,13.2-4.3c2.6-2.7,4.6-7.8,6-15.4h0.6l1.8,14c-3.8,6.4-11,9.6-21.5,9.5
			s-18.8-2.5-24.8-7.4S446.5,217.5,446.5,208.6"/>
		<path class="st1" d="M564.3,190.2c0.8,1.8,1.2,3.7,1.2,5.6s-0.2,3.6-0.6,5.1s-1.1,2.9-1.9,4.4c-1.9,3.1-5.2,5-9.8,5.7
			c2,0.6,3.8,1.6,5.4,3c1.7,1.4,3.3,3.4,4.8,6c3.9,6.6,6.8,10.8,8.9,12.7c1.5,1.4,3.5,2.2,5.9,2.2v0.8h-9.6
			c-6.7,0-11.5-0.7-14.3-2.2c-4.1-2.1-7-5.7-8.8-10.9c-0.5-1.5-0.9-3.1-1.2-4.7c-0.3-1.7-0.6-2.8-0.8-3.6c-0.2-0.7-0.5-1.4-0.8-2.1
			s-0.6-1.1-1-1.5c-0.6-0.6-1.3-1.1-2.2-1.4v-0.8h1.2c3,0,5.2-1.4,6.7-4.1c0.8-1.4,1.3-3,1.4-4.7c0.2-1.7,0.3-2.7,0.3-3.1v-0.8
			c-0.4-6.8-3.3-10.2-8.8-10.2h-3.4v44.3c0,1.3,0.5,2.5,1.5,3.4c1,0.9,2.1,1.4,3.5,1.4h0.9v0.8h-27.7v-0.8h1c1.3,0,2.5-0.5,3.4-1.4
			s1.5-2.1,1.5-3.4v-42.8c0-1.9-0.9-3.3-2.5-4.2c-0.8-0.4-1.6-0.6-2.5-0.6h-1v-0.8h30.2C555.2,181.7,561.6,184.5,564.3,190.2"/>
		<path class="st1" d="M584.4,234.9c1.3,0,2.5-0.5,3.4-1.4c1-0.9,1.5-2.1,1.5-3.4v-42.7c0-1.7-0.8-3-2.1-3.9
			c-0.8-0.6-1.8-0.9-2.8-0.9h-1v-0.8h34.2c2.2,0,4.2-0.2,5.9-0.5c1.7-0.4,2.8-0.6,3.3-0.8v15.9h-0.8v-0.6c0-4.1-1.5-7-4.5-8.6
			c-1.4-0.8-3.2-1.3-5.2-1.3h-11.2v21.5h8.4c2.5-0.1,4.5-0.9,6-2.4c1.5-1.6,2.3-3.6,2.3-6.1v-0.3h0.8v21.4h-0.8v-0.4
			c0-2.4-0.8-4.4-2.3-6s-3.5-2.4-5.9-2.4h-8.5v20.7h9.5c3.8,0,7.1-1.2,10-3.7s4.9-5.9,6.1-10.3h0.8l-2.9,17.9h-45.1v-0.8
			L584.4,234.9L584.4,234.9z"/>
		<path class="st1" d="M674.9,185.5v44.6c0,1.3,0.5,2.5,1.5,3.4c1,0.9,2.1,1.4,3.4,1.4h1v0.8h-27.7v-0.8h1c1.3,0,2.5-0.5,3.4-1.4
			s1.5-2,1.5-3.3v-44.7h-7.6c-3.1,0.1-5.5,1-7.3,2.7c-1.8,1.8-2.6,4.2-2.6,7.3v0.5l-0.8,0.1v-15.9c0.7,0.3,2,0.6,3.9,0.9
			c1.9,0.3,3.6,0.5,5.2,0.5h34.2c1.6,0,3.3-0.2,5.2-0.5c1.8-0.3,3.2-0.6,3.9-0.9v15.9l-0.8-0.1v-0.5c0-4.2-1.5-7.1-4.6-8.8
			c-1.5-0.8-3.3-1.2-5.3-1.2L674.9,185.5L674.9,185.5z"/>
		<path class="st1" d="M778.5,222.6c0,2.2-0.5,4.6-1.5,7.1c-1,2.5-2.5,4.8-4.7,6.9s-4.9,3.8-8.3,5.2c-3.4,1.3-7.1,2-11.1,2
			s-7.6-0.6-10.8-1.9c-6-2.4-9.8-6.5-11.6-12.4c-0.5-1.6-0.7-3.1-0.7-4.5c0-4.5,1.4-8.7,4.1-12.6l0.7,0.5c-1.7,3-2.5,6-2.5,8.8
			c0,3.5,0.9,6.6,2.6,9.3s4.1,4.8,7,6.3c2.9,1.5,5.9,2.2,9,2.2s5.6-0.5,7.8-1.5c2.1-1,3.7-2.3,4.6-3.9s1.5-3.4,1.5-5.2
			s-0.6-3.6-1.9-5.5c-1.3-1.9-3.2-3.5-5.7-4.9l-12.6-7.4c-6.4-3.8-9.6-8.6-9.6-14.5c0-5.3,1.8-9.4,5.5-12.3
			c3.1-2.4,7.3-3.6,12.6-3.6c3.4,0,7.7,0.3,13,0.8h6l-1.6,12.6h-0.8c0-2.8-1.1-5.1-3.3-6.9s-5-2.6-8.5-2.6s-6.1,0.6-7.9,1.8
			s-2.8,2.8-3,4.7c-0.2,1.3,0.2,2.5,1.1,3.4c0.8,0.8,1.5,1.4,2.3,1.9c0.8,0.4,1.5,0.8,2.1,1.2c0.6,0.4,1,0.6,1.3,0.7l14.4,8.3
			c3.2,1.8,5.8,4,7.6,6.7C777.5,216.1,778.5,219.3,778.5,222.6"/>
		<path class="st1" d="M885.9,256.1c-3.7,2.2-8.2,3.2-13.6,3.2c-1.8,0-4.6-0.4-8.3-1.3c-3.7-0.8-7.3-2.3-10.9-4.2s-6.9-4-9.9-6.1
			s-5.4-3.9-7.3-5.3s-3.9-2.7-6.2-3.8c-2.3-1.1-4.6-1.7-6.7-1.7c-9.9-0.1-17.7-2.5-23.4-7.5c-5.7-4.9-8.5-11.8-8.5-20.6
			s2.8-15.7,8.5-20.6c5.7-4.9,13.5-7.4,23.5-7.4c6.6,0,12.3,1.1,17.2,3.3c4.8,2.2,8.5,5.4,11.1,9.7c2.6,4.2,3.9,9.3,3.9,15.1
			c0,8.8-2.8,15.7-8.6,20.7c-2.8,2.4-6.1,4.2-10.1,5.5c4.3,0.7,8.1,1.6,11.3,2.7c3.2,1.1,7,2.4,11.2,4c6.9,2.5,13.3,3.8,19.2,3.8
			s11-1.6,15.3-4.7l0.5,0.2c0,3.3-0.7,6.3-2.1,8.9S888.6,254.5,885.9,256.1 M812.1,190.9c-2.7,4.3-4,10.2-4,17.8s1.3,13.5,4,17.8
			s6.3,6.4,11,6.4s8.4-2.1,11-6.4s4-10.2,4-17.8s-1.3-13.5-4-17.8s-6.3-6.4-11-6.4S814.8,186.6,812.1,190.9"/>
		<path class="st1" d="M928.5,182.5h-1.2c-1.1,0-2,0.3-2.8,1c-0.8,0.7-1.2,1.6-1.3,2.6v29.8c0,6.5-2,11.6-6.1,15.3
			c-4,3.7-9.7,5.6-17,5.6c-9.3,0-16.2-1.8-20.7-5.4s-6.9-8.7-6.9-15.4v-29.6c0-1.1-0.4-2.1-1.2-2.8c-0.8-0.7-1.8-1.1-2.9-1.1h-1.2
			v-0.8h26.4v0.8h-1.2c-1.1,0-2.1,0.3-2.8,1c-0.8,0.7-1.2,1.6-1.2,2.7v29.4c0,5.4,1.2,9.6,3.7,12.7c2.5,3,5.9,4.6,10.3,4.6
			s7.9-1.4,10.4-4.3s3.7-6.8,3.7-11.9v-30.5c-0.1-1.1-0.5-2-1.2-2.7c-0.8-0.7-1.7-1-2.8-1h-1.2v-0.8h17.3L928.5,182.5L928.5,182.5z"
			/>
		<path class="st1" d="M939.9,234.9c1.3,0,2.5-0.5,3.4-1.4c0.9-0.9,1.4-2.1,1.5-3.4v-42.8c-0.1-1.3-0.6-2.5-1.5-3.4
			c-0.9-0.9-2.1-1.4-3.4-1.4h-1v-0.8h27.7v0.8h-1c-1.3,0-2.5,0.5-3.4,1.4c-0.9,0.9-1.4,2.1-1.5,3.4v42.8c0,1.3,0.5,2.5,1.5,3.4
			c1,0.9,2.1,1.4,3.5,1.4h1v0.8h-27.7v-0.8H939.9L939.9,234.9z"/>
		<path class="st1" d="M1028.6,190.2c0.8,1.8,1.2,3.7,1.2,5.6s-0.2,3.6-0.6,5.1s-1.1,2.9-1.9,4.4c-1.9,3.1-5.2,5-9.8,5.7
			c2,0.6,3.8,1.6,5.4,3c1.7,1.4,3.3,3.4,4.8,6c3.9,6.6,6.8,10.8,8.9,12.7c1.5,1.4,3.5,2.2,5.9,2.2v0.8h-9.6
			c-6.7,0-11.5-0.7-14.3-2.2c-4.1-2.1-7-5.7-8.8-10.9c-0.5-1.5-0.9-3.1-1.2-4.7c-0.3-1.7-0.6-2.8-0.8-3.6c-0.2-0.7-0.5-1.4-0.8-2.1
			s-0.6-1.1-1-1.5c-0.6-0.6-1.3-1.1-2.2-1.4v-0.8h1.2c3,0,5.2-1.4,6.7-4.1c0.8-1.4,1.3-3,1.4-4.7c0.2-1.7,0.3-2.7,0.3-3.1v-0.8
			c-0.4-6.8-3.3-10.2-8.8-10.2h-3.4v44.3c0,1.3,0.5,2.5,1.5,3.4c1,0.9,2.1,1.4,3.5,1.4h0.9v0.8h-27.7v-0.8h1c1.3,0,2.5-0.5,3.4-1.4
			c0.9-0.9,1.4-2.1,1.5-3.4v-42.8c-0.1-1.9-0.9-3.3-2.5-4.2c-0.8-0.4-1.6-0.6-2.5-0.6h-1v-0.8h30.2
			C1019.5,181.7,1025.9,184.5,1028.6,190.2"/>
		<path class="st1" d="M1097.4,190.2c0.8,1.8,1.2,3.7,1.2,5.6s-0.2,3.6-0.6,5.1s-1.1,2.9-1.9,4.4c-1.9,3.1-5.2,5-9.8,5.7
			c2,0.6,3.8,1.6,5.4,3c1.7,1.4,3.3,3.4,4.8,6c3.8,6.6,6.8,10.8,8.9,12.7c1.5,1.4,3.5,2.2,5.9,2.2v0.8h-9.6
			c-6.7,0-11.5-0.7-14.3-2.2c-4.1-2.1-7-5.7-8.8-10.9c-0.5-1.5-0.9-3.1-1.2-4.7c-0.3-1.7-0.6-2.8-0.8-3.6c-0.2-0.7-0.5-1.4-0.8-2.1
			s-0.6-1.1-1-1.5c-0.6-0.6-1.3-1.1-2.2-1.4v-0.8h1.2c3,0,5.2-1.4,6.7-4.1c0.8-1.4,1.3-3,1.4-4.7c0.2-1.7,0.3-2.7,0.3-3.1v-0.8
			c-0.4-6.8-3.3-10.2-8.8-10.2h-3.4v44.3c0,1.3,0.5,2.5,1.5,3.4c1,0.9,2.1,1.4,3.5,1.4h0.9v0.8H1048v-0.8h1c1.3,0,2.5-0.5,3.4-1.4
			c0.9-0.9,1.4-2.1,1.5-3.4v-42.8c-0.1-1.9-0.9-3.3-2.5-4.2c-0.8-0.4-1.6-0.6-2.5-0.6h-1v-0.8h30.2
			C1088.2,181.7,1094.6,184.5,1097.4,190.2"/>
		<path class="st1" d="M1117.4,234.9c1.3,0,2.5-0.5,3.4-1.4c0.9-0.9,1.4-2.1,1.5-3.4v-42.7c-0.1-1.7-0.8-3-2.1-3.9
			c-0.8-0.6-1.8-0.9-2.8-0.9h-1v-0.8h34.2c2.2,0,4.2-0.2,5.9-0.5s2.8-0.6,3.3-0.8v15.9h-0.8v-0.6c0-4.1-1.5-7-4.5-8.6
			c-1.4-0.8-3.2-1.3-5.2-1.3h-11.2v21.5h8.4c2.5-0.1,4.5-0.9,6-2.4c1.5-1.6,2.3-3.6,2.3-6.1v-0.3h0.8v21.4h-0.8v-0.4
			c0-2.4-0.8-4.4-2.3-6s-3.5-2.4-5.9-2.4h-8.5v20.7h9.5c3.8,0,7.1-1.2,9.9-3.7s4.9-5.9,6.1-10.3h0.8l-2.9,17.9h-45.1v-0.8
			L1117.4,234.9L1117.4,234.9z"/>
		<path class="st1" d="M1176.5,234.9c1.3,0,2.5-0.5,3.4-1.4c0.9-0.9,1.4-2.1,1.5-3.4v-42.7c-0.1-1.9-0.9-3.3-2.5-4.2
			c-0.8-0.4-1.6-0.6-2.5-0.6h-1v-0.8h27.7v0.8h-1c-1.3,0-2.5,0.5-3.5,1.4c-1,0.9-1.5,2.1-1.5,3.4v44.4h9.5c3.8,0,7.1-1.2,9.9-3.7
			s4.9-5.9,6.1-10.3h0.8l-2.9,17.9h-45.1v-0.8L1176.5,234.9L1176.5,234.9z"/>
		<path class="st1" d="M603.2,322.8c-2.7,1.6-5.5,2.4-8.3,2.4s-5.5-0.5-8-1.6c-2.5-1.1-5-2.9-7.4-5.5c-2.4-2.6-4.4-5.8-5.9-9.5
			l-1.4-3.5H561l-2.1,4.9c-0.2,0.4-0.3,0.8-0.3,1.1s0.1,0.6,0.2,0.9c0.1,0.3,0.4,0.6,0.8,0.9c0.4,0.3,0.8,0.4,1.3,0.4h0.5v0.5h-11.7
			v-0.5h0.5c0.8,0,1.6-0.2,2.4-0.7s1.4-1.2,2-2.1l10.7-23.5c-1-2.9-1.9-4.9-2.6-5.9s-1.3-1.8-1.7-2.3c-0.8-1-1.9-1.7-3.2-2.2
			c-0.5-0.2-1.1-0.3-1.7-0.3s-1.4,0.2-2.3,0.5l-0.1-0.5c2.8-1.7,5.5-2.5,8-2.5c3.8,0,7.2,1.9,10.3,5.6c1.5,1.9,2.9,4.3,4.2,7
			l8.4,19.3c1.5,3.5,2.7,5.9,3.4,7.1s1.4,2.2,2,3.1c0.6,0.9,1.2,1.6,1.7,2.2s1.2,1.2,1.8,1.8c1.2,1.1,2.6,1.8,4.4,2.4
			c0.7,0.3,1.5,0.4,2.4,0.4s1.8-0.1,2.8-0.4L603.2,322.8L603.2,322.8z M562.2,302.5h9l-3.3-8.1c-0.3-0.6-0.6-1.5-1-2.7L562.2,302.5
			L562.2,302.5z"/>
		<path class="st1" d="M625.8,302c0,4.2-1.5,7.4-4.5,9.5s-7,3.1-12,3.1c-2.9,0-5.5-0.3-7.7-1c-2.2-0.7-3.8-1.5-4.8-2.4
			c-0.3-0.8-0.5-1.6-0.5-2.5s0.1-1.8,0.2-2.6c0.4-2.1,1-3.7,1.9-4.8h0.5c0,0.2,0,0.4,0,0.7c0,2.6,1,4.9,3.1,7c2,2.1,4.8,3.1,8.4,3.1
			c2.4,0,4.2-0.5,5.5-1.5c1.3-1,1.9-2.1,1.9-3.4s-0.4-2.4-1.3-3.3c-0.9-0.9-2.3-1.8-4.3-2.7l-8.6-4c-2.4-1.1-4.2-2.6-5.3-4.6
			c-0.9-1.5-1.3-3.2-1.3-5.1c0-3.8,1.3-6.7,3.8-8.6c2.1-1.6,5-2.4,8.5-2.4c2.3,0,5.3,0.2,8.9,0.5h4.1l-1.2,8.6h-0.5
			c0-1.9-0.8-3.5-2.3-4.7c-1.5-1.2-3.4-1.8-5.8-1.8s-4.1,0.4-5.4,1.2c-1.3,0.8-2,1.9-2.1,3.2c-0.1,1.7,0.9,3.1,3.2,4.2
			c0.4,0.2,0.9,0.4,1.5,0.7l9.8,4.6C623.7,294.7,625.7,297.7,625.8,302"/>
		<path class="st1" d="M664.9,302c0,4.2-1.5,7.4-4.5,9.5s-7,3.1-12,3.1c-2.9,0-5.5-0.3-7.7-1c-2.2-0.7-3.8-1.5-4.8-2.4
			c-0.3-0.8-0.5-1.6-0.5-2.5s0.1-1.8,0.2-2.6c0.4-2.1,1-3.7,1.9-4.8h0.5c0,0.2,0,0.4,0,0.7c0,2.6,1,4.9,3.1,7c2,2.1,4.8,3.1,8.4,3.1
			c2.4,0,4.2-0.5,5.5-1.5c1.3-1,1.9-2.1,1.9-3.4s-0.4-2.4-1.3-3.3c-0.9-0.9-2.3-1.8-4.3-2.7l-8.6-4c-2.4-1.1-4.2-2.6-5.3-4.6
			c-0.9-1.5-1.3-3.2-1.3-5.1c0-3.8,1.3-6.7,3.8-8.6c2.1-1.6,5-2.4,8.5-2.4c2.3,0,5.3,0.2,8.9,0.5h4.1l-1.2,8.6h-0.5
			c0-1.9-0.8-3.5-2.3-4.7c-1.5-1.2-3.4-1.8-5.8-1.8s-4.1,0.4-5.4,1.2c-1.3,0.8-2,1.9-2.1,3.2c-0.1,1.7,0.9,3.1,3.2,4.2
			c0.4,0.2,0.9,0.4,1.5,0.7l9.8,4.6C662.9,294.7,664.9,297.7,664.9,302"/>
		<path class="st1" d="M695.8,276.3c4.5,0,8.4,0.8,11.7,2.3s5.8,3.7,7.5,6.6s2.6,6.3,2.6,10.3c0,6-2,10.7-5.8,14.1
			c-3.9,3.4-9.2,5.1-16,5.1s-12.1-1.7-16-5.1s-5.8-8.1-5.8-14.1s1.9-10.7,5.8-14.1S689,276.3,695.8,276.3 M688.4,307.6
			c1.8,2.9,4.3,4.4,7.5,4.4s5.7-1.4,7.5-4.4s2.7-6.9,2.7-12.1s-0.9-9.2-2.7-12.1c-1.8-2.9-4.3-4.4-7.5-4.4s-5.7,1.4-7.5,4.4
			c-1.8,2.9-2.7,6.9-2.7,12.1S686.5,304.7,688.4,307.6"/>
		<path class="st1" d="M727.1,295.4c0-4,0.9-7.4,2.7-10.2s4.5-5.1,7.9-6.6c3.5-1.5,7.7-2.3,12.7-2.3s9.4,0.8,13.2,2.4l-0.5,10h-0.5
			c-1-3.5-2.5-6.1-4.4-7.6c-1.9-1.5-4.3-2.3-7.2-2.3c-3.9,0-6.9,1.4-9.1,4.3c-2.2,2.9-3.3,6.9-3.3,12s1,9.2,3,12.1s4.8,4.5,8.4,4.6
			c4.1,0,7.1-1,9-2.9c1.8-1.8,3.1-5.3,4.1-10.5h0.4l1.3,9.6c-2.6,4.3-7.5,6.5-14.7,6.5c-7.2,0-12.8-1.7-16.9-5
			C729.1,306.2,727.1,301.5,727.1,295.4"/>
		<path class="st1" d="M774.2,313.3c0.9,0,1.7-0.3,2.3-1s1-1.4,1-2.3v-29.2c0-0.9-0.4-1.7-1-2.3s-1.4-0.9-2.3-0.9h-0.7v-0.5h18.9
			v0.5h-0.7c-0.9,0-1.7,0.3-2.3,0.9s-1,1.4-1,2.3V310c0,0.9,0.3,1.7,1,2.3s1.5,1,2.4,1h0.7v0.5h-18.9v-0.5H774.2L774.2,313.3z"/>
		<path class="st1" d="M837.1,313.3h0.4v0.5h-19.9v-0.5h0.5c0.8,0,1.3-0.2,1.7-0.7s0.6-0.9,0.6-1.3s-0.1-0.8-0.3-1.3l-2.1-4.9h-11.2
			l-2.1,4.9c-0.2,0.4-0.3,0.8-0.3,1.1s0.1,0.6,0.2,0.9c0.1,0.3,0.4,0.6,0.8,0.9c0.4,0.3,0.8,0.4,1.3,0.4h0.5v0.5h-11.7v-0.5h0.5
			c0.8,0,1.6-0.2,2.4-0.7c0.8-0.5,1.4-1.2,2-2.1l12.2-26.8c1.9-3.9,2.8-6.5,3-7.8h0.5l16.7,34.6
			C833.8,312.3,835.3,313.3,837.1,313.3 M808,302.5h9l-4.4-10.5L808,302.5z"/>
		<path class="st1" d="M859.1,279.6v30.4c0,0.9,0.4,1.7,1,2.3c0.7,0.6,1.4,0.9,2.3,0.9h0.7v0.5h-18.9v-0.5h0.7
			c0.9,0,1.7-0.3,2.3-0.9c0.7-0.6,1-1.4,1-2.3v-30.5h-5.2c-2.1,0-3.8,0.7-4.9,1.9s-1.8,2.9-1.8,5v0.4l-0.5,0.1v-10.8
			c0.5,0.2,1.4,0.4,2.7,0.6s2.5,0.3,3.6,0.3h23.3c1.1,0,2.3-0.1,3.5-0.3c1.3-0.2,2.2-0.4,2.7-0.6v10.8l-0.5-0.1v-0.4
			c0-2.8-1.1-4.8-3.2-6c-1-0.5-2.2-0.8-3.6-0.8L859.1,279.6L859.1,279.6z"/>
		<path class="st1" d="M879.6,313.3c0.9,0,1.7-0.3,2.3-1s1-1.4,1-2.3v-29.2c0-0.9-0.4-1.7-1-2.3c-0.7-0.6-1.4-0.9-2.3-0.9h-0.7v-0.5
			h18.9v0.5h-0.7c-0.9,0-1.7,0.3-2.3,0.9s-1,1.4-1,2.3V310c0,0.9,0.3,1.7,1,2.3s1.4,1,2.4,1h0.7v0.5h-18.9v-0.5H879.6L879.6,313.3z"
			/>
		<path class="st1" d="M926.9,276.3c4.5,0,8.4,0.8,11.7,2.3c3.3,1.5,5.8,3.7,7.5,6.6s2.6,6.3,2.6,10.3c0,6-1.9,10.7-5.8,14.1
			s-9.2,5.1-16,5.1s-12.1-1.7-16-5.1s-5.8-8.1-5.8-14.1s1.9-10.7,5.8-14.1S920.2,276.3,926.9,276.3 M919.5,307.6
			c1.8,2.9,4.3,4.4,7.5,4.4s5.7-1.4,7.5-4.4s2.7-6.9,2.7-12.1s-0.9-9.2-2.7-12.1c-1.8-2.9-4.3-4.4-7.5-4.4s-5.7,1.4-7.5,4.4
			s-2.7,6.9-2.7,12.1S917.7,304.7,919.5,307.6"/>
		<path class="st1" d="M999.3,277.6c-0.9,0-1.6,0.3-2.3,0.9s-1,1.4-1,2.2v27.1c0,2.6,0.2,4.6,0.5,6l0.2,0.7h-0.5l-25.2-22.4v17.9
			c0,1.3,0.5,2.2,1.6,2.8c0.5,0.3,1,0.4,1.6,0.4h1v0.5h-19.2v-0.5h1c0.9,0,1.6-0.3,2.3-0.9s0.9-1.4,0.9-2.3v-27.3
			c0-2.4-0.2-4.4-0.5-5.8l-0.2-0.7h0.5l25.2,22.4v-17.9c0-0.9-0.4-1.7-1-2.3s-1.4-0.9-2.3-0.9h-1v-0.5h19.2v0.5L999.3,277.6
			L999.3,277.6z"/>
	</g>
	<g>
		<path class="st1" d="M191.9,327.3c-4.1-21.1-16.4-46.3-51.9-46.4c-26.6-0.1-48.8,20-50.2,44.6c11.9-5.6,39.4-17.9,52.3-17.9
			C156.5,307.6,184.7,323.2,191.9,327.3"/>
		<path class="st1" d="M345.7,85.8c-3.3-9.8-8-18.4-13.8-25.9c-11.6-15-27.7-25.6-45.5-31.6c-11.8-4-24.4-6.1-36.7-6.1
			c-14.8,0-29.3,2.9-41.9,8.6c-12.6,5.7-23.4,14.1-31,25.2c-5.1,7.4-8.8,16-10.7,26c-1.9,10.1-2.8,19.7-2.8,28.9
			c0,27.2,7.6,51.1,18,73c10.4,22,23.6,42,34.6,61.4c5.2,9.1,9.8,18.1,13.5,27.2c5.3,11.7,8.2,23.6,7.3,36.5
			c-1.9,27.7-12,42.7-23.7,50.6c7.5-12.4,13-29.4,12.1-52.5c-2.7-67.2-71.7-102.1-91.8-109.7s-55.8-24.3-50.8-67.2
			c0,0-28.5,13.7-24.3,35.3c0,0-50.1,19-40.6,73.2c0,0,31.9,9.9,70.2-12.9c0,0-9.1,49.3-40.6,43.3C15.6,263-3,274.4,0.4,303.3
			c0,0,17.8-21.6,39.8-4.9c22,16.7,31.6,27.3,55.4-8c30.1-44.5,124.3-15.6,97.8,65.6c0,0,1.3-12.3-1.2-27
			c-6.5,3.8-35.4,19.8-50.2,19.8c-12.9,0-40.3-12.2-52.3-17.8c0.9,12.3,7,25.4,20.3,37.5c0,0-37.2-7.6-37.2,21.6h103.6
			c126,2.8,140.2-113.1,105.7-187.5S234.8,84.4,272.1,70.6c42.7-15.8,67.8,41.8,77.1,69.1c1.1-7.3,1.7-14.3,1.7-20.9
			C350.8,106.6,349,95.6,345.7,85.8"/>
		<path class="st1" d="M152.6,110.9c0-9.9,0.9-20.2,3-30.9c2.2-11.4,6.5-21.4,12.4-30.1s13.4-15.8,21.9-21.5
			c17.1-11.4,38.3-17,59.8-17c20.3,0,41,5,59.1,15c18.1,10,33.5,25.2,43,45.5c6.3,13.5,9.9,29.2,9.9,47c0,4.7-0.3,9.4-0.8,14.4
			C406-15.6,170.5-44.7,148.1,71.2c-9.2,47.6,3.4,83.3,21.7,113.5c-1.9-4.2-3.7-8.5-5.4-12.9C157.3,153.3,152.6,133.2,152.6,110.9"
			/>
		<path class="st1" d="M158.1,328.3c0-9.7-7.8-17.5-17.5-17.5c-9.7,0-17.5,7.8-17.5,17.5s7.8,17.5,17.5,17.5
			C150.3,345.8,158.1,337.9,158.1,328.3 M140.3,333.7c-3,0-5.4-2.4-5.4-5.4s2.4-5.4,5.4-5.4s5.4,2.4,5.4,5.4
			S143.3,333.7,140.3,333.7"/>
		<path class="st1" d="M340.7,394.9c0,4.4-75.3,7.9-168.1,7.9S4.5,399.3,4.5,394.9c0-4.4,75.3-7.9,168.1-7.9
			S340.7,390.5,340.7,394.9"/>
	</g>
</g>
</svg>
